Coordinates
version=1
nRows=18
nColumns=22
inDegrees=yes

Units are S.I. units (second, meters, Newtons, ...)
If the header above contains a line with 'inDegrees', this indicates whether rotational values are in degrees (yes) or radians (no).

endheader
time	pelvis_tilt	pelvis_list	pelvis_rotation	pelvis_tx	pelvis_ty	pelvis_tz	hip_flexion_r	hip_adduction_r	hip_rotation_r	knee_angle_r	ankle_angle_r	subtalar_angle_r	hip_flexion_l	hip_adduction_l	hip_rotation_l	knee_angle_l	ankle_angle_l	subtalar_angle_l	lumbar_extension	lumbar_bending	lumbar_rotation
      3.03000000	     -2.30049138	     -9.47072628	    -23.74930198	     -0.20819421	      0.82996572	     -0.02074753	    -13.31752360	      1.22897502	     15.12914071	    -18.27190255	     29.62758243	      2.43289999	     33.76072133	    -27.70518176	    -39.34999853	    -19.51191686	      5.10530519	    -10.18642197	     -4.65979464	      6.20526084	     33.25405312
      3.04000000	     -2.12543749	     -9.78618627	    -23.49105978	     -0.19513412	      0.82790934	     -0.02129249	    -14.15360042	      1.07083622	     15.14797779	    -18.89470279	     29.14732295	      3.47186096	     33.80520884	    -28.14153477	    -39.26003523	    -21.01384067	      4.24115749	    -10.95671095	     -4.56984185	      5.93306352	     33.97399488
      3.05000000	     -2.01603114	    -10.08083573	    -23.17599975	     -0.18200712	      0.82620093	     -0.02196200	    -14.79701389	      0.95599433	     15.25812708	    -19.71102645	     28.37175820	      4.73824647	     33.97086830	    -28.51927602	    -38.74869988	    -22.56546848	      3.07232031	    -11.43624885	     -4.39574787	      5.61830516	     34.66117318
      3.06000000	     -1.93350250	    -10.36357918	    -22.79464542	     -0.16883270	      0.82495877	     -0.02275786	    -15.25404579	      0.89091152	     15.41895723	    -20.76755248	     27.27263690	      6.31462498	     34.24291529	    -28.85058843	    -37.86687842	    -24.18469702	      1.69326828	    -11.62920889	     -4.18529894	      5.25057064	     35.31213710
      3.07000000	     -1.84056490	    -10.70537951	    -22.32198150	     -0.15561284	      0.82430232	     -0.02367898	    -15.58256695	      0.94639258	     15.61376535	    -22.05259660	     25.76401869	      8.13316602	     34.61604282	    -29.19620138	    -36.59055203	    -25.92437826	      0.32564360	    -11.55528256	     -4.00928506	      4.89006225	     35.90595928
      3.08000000	     -1.68788491	    -10.93322569	    -21.78763222	     -0.14232953	      0.82429980	     -0.02473350	    -15.69162779	      0.91306005	     15.70977077	    -23.66330291	     23.95489381	     10.71264090	     34.97274930	    -29.37770011	    -35.17759848	    -27.69625360	     -0.93682435	    -11.24078078	     -3.83948053	      4.33796734	     36.50038971
      3.09000000	     -1.43427732	    -11.23213170	    -21.13385350	     -0.12896250	      0.82506864	     -0.02594588	    -15.74106346	      0.97368502	     15.73253933	    -25.47795803	     21.66777259	     13.61886301	     35.30140732	    -29.53238926	    -33.50805488	    -29.58282315	     -1.77225162	    -10.75729886	     -3.79960280	      3.78632245	     37.04177426
      3.10000000	     -1.06171404	    -11.55628822	    -20.36597067	     -0.11550210	      0.82661603	     -0.02734527	    -15.70170504	      1.05709502	     15.59793491	    -27.50275826	     18.92786919	     16.94283026	     35.53153988	    -29.60253937	    -31.73811491	    -31.52497402	     -2.14077109	    -10.15481121	     -3.88482271	      3.19857811	     37.55514488
      3.11000000	     -0.56771633	    -11.90774281	    -19.48608700	     -0.10199640	      0.82891606	     -0.02897081	    -15.56204730	      1.14734799	     15.26825609	    -29.71474044	     15.75114399	     20.51758594	     35.60688799	    -29.56089261	    -29.91543549	    -33.42177617	     -2.09267364	     -9.49724688	     -4.09988979	      2.60089168	     38.05979553
      3.12000000	      0.00990883	    -12.29338013	    -18.50201859	     -0.08850546	      0.83183287	     -0.03088489	    -15.26810505	      1.23701727	     14.69642469	    -32.10058425	     12.18402190	     24.07600157	     35.53374850	    -29.41274042	    -28.08383152	    -35.19625791	     -1.73243579	     -8.84508011	     -4.40810161	      2.04459897	     38.57320030
      3.13000000	      0.61756886	    -12.70669927	    -17.44031348	     -0.07513889	      0.83516703	     -0.03315431	    -14.72971138	      1.30124611	     13.86099687	    -34.68104729	      8.30983383	     27.29558304	     35.33175654	    -29.16143483	    -26.28752528	    -36.76182404	     -1.16072997	     -8.25895563	     -4.75583621	      1.57483401	     39.09656681
      3.14000000	      1.20140019	    -13.12734528	    -16.33859271	     -0.06198062	      0.83866929	     -0.03583772	    -13.85980164	      1.27203827	     12.70295449	    -37.46570683	      4.24000453	     29.87372960	     35.03735019	    -28.82330845	    -24.59774354	    -38.08790193	     -0.45512651	     -7.79158753	     -5.07813149	      1.21499167	     39.66024406
      3.15000000	      1.71860710	    -13.52749113	    -15.24675150	     -0.04912043	      0.84210832	     -0.03897256	    -12.59012848	      1.05909590	     11.21056160	    -40.45445809	      0.04783720	     31.55067717	     34.67256016	    -28.41642824	    -23.10366467	    -39.16270053	      0.35269640	     -7.48059472	     -5.32288227	      0.97046912	     40.26425606
      3.16000000	      2.20155980	    -13.86717219	    -14.17190957	     -0.03657797	      0.84541274	     -0.04262834	    -10.98982582	      0.53647108	      9.38396062	    -43.54354472	     -4.22821045	     32.12929881	     34.18450874	    -27.90418956	    -21.84974440	    -39.97131197	      1.20363375	     -7.35290138	     -5.51235587	      0.79772574	     40.91538656
      3.17000000	      2.48476963	    -14.17372781	    -13.19769395	     -0.02441939	      0.84821470	     -0.04668982	     -8.93539477	     -0.25700630	      7.40547890	    -46.66683339	     -8.43778300	     31.78657675	     33.78518173	    -27.40344060	    -20.82729649	    -40.60641262	      2.21247235	     -7.30907968	     -5.47474947	      0.77465840	     41.59186605
      3.18000000	      2.74714604	    -14.41935360	    -12.26166215	     -0.01257432	      0.85087370	     -0.05119501	     -6.76221634	     -1.37603908	      5.40739420	    -49.54834331	    -12.45566206	     30.13425126	     33.24897940	    -26.82743345	    -20.04320075	    -41.00667955	      3.19739466	     -7.40125415	     -5.38932856	      0.80124893	     42.30010262
      3.19000000	      2.98734232	    -14.61200092	    -11.34240646	     -0.00101945	      0.85338456	     -0.05608229	     -4.59448354	     -2.71940791	      3.62860679	    -52.02679117	    -15.88590096	     27.92294236	     32.62453278	    -26.20406719	    -19.46863555	    -41.24523710	      4.21133404	     -7.51670104	     -5.25755847	      0.87182427	     42.95864445
      3.20000000	      3.21610980	    -14.78658185	    -10.41221233	      0.01025939	      0.85587352	     -0.06123249	     -2.54708375	     -4.12515667	      2.22804597	    -53.97458344	    -18.42963570	     25.49913820	     31.91961790	    -25.56708424	    -19.03742892	    -41.32057959	      5.20642384	     -7.60836764	     -5.09480653	      0.99276931	     43.56384389
